# xmcd CD database file
#
# Track frame offsets:
#	150
#	15837
#	31629
#	60135
#	73566
#	92803
#	109884
#	131102
#	146202
#	174365
#	203263
#	233697
#	266104
#	286790
#	330978
#	349585
#
# Disc length: 4713 seconds
#
# Revision: 0
# Processed by: cddbd v1.5.2PL0 Copyright (c) Steve Scherf et al.
# Submitted via: CDex 1.70beta2
#
DISCID=cf126710
DTITLE=Various Artist - More Saxes CD2
DYEAR=2005
DGENRE=Jazz
TTITLE0=Benny Carter - Angel Eyes
TTITLE1=Johnny Hodges - A-Oddie-Oobie
TTITLE2=Pete Brown - Body and Soul
TTITLE3=Charlie Parker - Confirmation
TTITLE4=Sonny Stitt - I'm Getting Sentimental for You
TTITLE5=Lee Konitz - When You're Smiling
TTITLE6=Hal McKusick - The End of a Love Affair
TTITLE7=Julian "Cannonball" Adderley - Jump for Joy
TTITLE8=Herb Geller - Freeway
TTITLE9=Eric Dolphy - Yearnin'
TTITLE10=Zbigniew Namyslowski - Ol' Man River
TTITLE11=Paul Desmond - Take Five
TTITLE12=Marion Brown - Moments of Truth
TTITLE13=Gary Bartz and Sonny Fortune - Lonely Woman
TTITLE14=Klaus Dickbauer - Blueberry Hill
TTITLE15=Donald Harrison - Amazing Grace
EXTD=YEAR: 2005
EXTT0=
EXTT1=
EXTT2=
EXTT3=
EXTT4=
EXTT5=
EXTT6=
EXTT7=
EXTT8=
EXTT9=
EXTT10=
EXTT11=
EXTT12=
EXTT13=
EXTT14=
EXTT15=
PLAYORDER=
